<svg width="65" height="16" xmlns="http://www.w3.org/2000/svg" xmlns:xlink="http://www.w3.org/1999/xlink">
<defs>
<symbol id="logo" viewBox="0 0 65 16">
<title>logo</title>
<path id="a" d="M10.52 6v2.8H4.28v2.8h6.24v2.8H4.28V20h-2.8V6h9.04zm3.952 5.64c.267-.587.627-1.047 1.08-1.38.466-.333 1.053-.5 1.76-.5.186 0 .353.013.5.04.16.027.32.06.48.1v2.84a2.137 2.137 0 0 0-.58-.12c-.2-.027-.407-.04-.62-.04-.88 0-1.52.247-1.92.74-.4.48-.6 1.2-.6 2.16V20h-2.64V10h2.54v1.64zm4.555-4.5c0-.48.16-.88.48-1.2.32-.333.72-.5 1.2-.5s.88.167 1.2.5c.333.32.5.72.5 1.2s-.167.88-.5 1.2c-.32.32-.72.48-1.2.48s-.88-.16-1.2-.48c-.32-.32-.48-.72-.48-1.2zm3 2.86v10h-2.64V10h2.64zm1.434 5c0-.733.12-1.42.36-2.06.24-.64.58-1.193 1.02-1.66.44-.48.973-.853 1.6-1.12.64-.267 1.353-.4 2.14-.4.76 0 1.447.127 2.06.38a4.312 4.312 0 0 1 1.56 1.08c.427.453.753 1.013.98 1.68.227.653.34 1.38.34 2.18v.72h-7.36l.02.04c.08.333.207.62.38.86a2.723 2.723 0 0 0 1.42.96c.293.067.587.1.88.1.6 0 1.133-.093 1.6-.28.48-.187.893-.433 1.24-.74l1.1 2.18c-.413.347-.94.653-1.58.92-.64.267-1.44.4-2.4.4-.84 0-1.593-.133-2.26-.4a4.991 4.991 0 0 1-1.7-1.1 4.74 4.74 0 0 1-1.04-1.66 5.877 5.877 0 0 1-.36-2.08zm7.18-1.12c-.067-.547-.28-.993-.64-1.34-.36-.36-.86-.54-1.5-.54s-1.16.167-1.56.5c-.4.32-.667.78-.8 1.38h4.5zm6.694-2.44a4.074 4.074 0 0 1 1.32-1.2c.547-.32 1.187-.48 1.92-.48 1.173 0 2.053.36 2.64 1.08.6.707.9 1.693.9 2.96V20h-2.7v-5.54c0-.76-.167-1.307-.5-1.64-.32-.347-.76-.52-1.32-.52-.773 0-1.334.267-1.68.8-.334.52-.5 1.227-.5 2.12V20h-2.64V10h2.56v1.44zm13.46.88c-.374 0-.72.067-1.04.2-.32.12-.6.3-.84.54a2.464 2.464 0 0 0-.54.84c-.134.333-.2.7-.2 1.1 0 .4.066.767.2 1.1.132.333.312.62.54.86.24.227.52.407.84.54.32.12.666.18 1.04.18.746 0 1.366-.24 1.86-.72.506-.48.76-1.133.76-1.96 0-.84-.254-1.493-.76-1.96-.494-.48-1.114-.72-1.86-.72zM55.974 6v14h-2.64v-1.4c-.36.507-.82.913-1.38 1.22-.56.293-1.208.44-1.94.44a4.548 4.548 0 0 1-1.76-.34 4.587 4.587 0 0 1-1.46-1.02 4.977 4.977 0 0 1-.98-1.66c-.24-.653-.36-1.4-.36-2.24 0-.84.12-1.587.36-2.24.24-.653.566-1.2.98-1.64a4.01 4.01 0 0 1 1.44-1.02 4.28 4.28 0 0 1 1.74-.36c.786 0 1.452.167 2 .5.56.32 1.012.72 1.36 1.2V6h2.64zm1.686 6.94c0-1.013.373-1.793 1.12-2.34.746-.56 1.78-.84 3.1-.84.92 0 1.7.133 2.34.4.653.267 1.2.627 1.64 1.08l-1.48 1.92c-.28-.307-.667-.553-1.16-.74a4.315 4.315 0 0 0-1.54-.28c-.854 0-1.28.233-1.28.7 0 .12.033.227.1.32.08.08.206.16.38.24.186.067.426.133.72.2.306.067.68.147 1.12.24.44.093.853.213 1.24.36.386.133.72.32 1 .56.293.24.526.54.7.9.173.36.26.8.26 1.32 0 1.147-.387 1.98-1.16 2.5-.774.507-1.827.76-3.16.76-.96 0-1.834-.133-2.62-.4-.774-.28-1.38-.7-1.82-1.26l1.54-2c.333.4.766.72 1.3.96.533.227 1.153.34 1.86.34.373 0 .686-.053.94-.16.266-.12.4-.32.4-.6a.505.505 0 0 0-.12-.34c-.067-.093-.187-.173-.36-.24a5.285 5.285 0 0 0-.7-.2 92.28 92.28 0 0 0-1.04-.24c-.374-.08-.76-.187-1.16-.32a3.842 3.842 0 0 1-1.06-.56c-.32-.24-.587-.54-.8-.9-.2-.373-.3-.833-.3-1.38z"></path>
</symbol>
</defs>
</svg>